<?xml version="1.0" standalone="no"?>
<!DOCTYPE svg PUBLIC "-//W3C//DTD SVG 20010904//EN"
 "http://www.w3.org/TR/2001/REC-SVG-20010904/DTD/svg10.dtd">
<svg version="1.0" xmlns="http://www.w3.org/2000/svg"
 width="196.000000pt" height="200.000000pt" viewBox="0 0 196.000000 200.000000"
 preserveAspectRatio="xMidYMid meet">
<metadata>
Created by potrace 1.13, written by Peter Selinger 2001-2015
</metadata>
<g transform="translate(0.000000,200.000000) scale(0.100000,-0.100000)"
fill="#adaeae" stroke="none">
<path d="M600 1956 c-80 -22 -115 -37 -219 -94 -52 -29 -176 -145 -210 -197
-95 -147 -125 -228 -143 -379 -18 -144 11 -295 84 -433 166 -320 525 -481 862
-388 48 13 93 28 100 33 6 5 22 13 34 17 13 4 43 20 67 36 24 16 50 29 60 29
9 0 144 -129 300 -286 245 -246 288 -285 314 -286 41 -1 71 27 71 66 0 27 -36
67 -280 315 -154 156 -280 291 -280 301 0 10 17 39 38 66 35 45 60 92 106 198
10 22 25 88 34 148 15 102 15 118 -1 224 -9 63 -23 124 -31 137 -8 12 -17 37
-21 55 -4 17 -10 32 -15 32 -4 0 -13 13 -18 30 -27 76 -176 234 -273 291 -181
104 -392 135 -579 85z m303 -131 c142 -25 286 -116 376 -239 47 -63 66 -102
97 -191 47 -136 30 -335 -42 -475 -47 -93 -154 -205 -241 -254 -112 -62 -149
-71 -303 -71 -130 0 -152 3 -210 25 -225 85 -368 257 -408 489 -13 79 -14 107
-3 185 10 80 34 158 62 206 5 8 18 32 30 54 28 51 149 170 202 198 156 82 279
102 440 73z"/>
</g>
</svg>
